# xmcd
#
# Track frame offsets: 
#        150
#        19626
#        39669
#        56196
#        72070
#        86334
#        112422
#        133832
#        150280
#        167619
#
# Disc length: 2514 seconds
#
# Revision: 0
# Processed by: cddbd v1.5.2PL0 Copyright (c) Steve Scherf et al.
# Submitted via: ExactAudioCopyFreeDBPlugin 1.0
#
DISCID=7f09d00a
DTITLE=Various Artist - Gospel Christmas
DYEAR=2010
DGENRE=Holiday
TTITLE0=Luther Vandross - O Come, All Ye Faithful
TTITLE1=Marvin Sapp - Shout Unto God
TTITLE2=John P. Kee and The New Life Community Choir - Let Us Adore Him
TTITLE3=SWV - O Holy Night
TTITLE4=Daryl Coley - Carol Of The Bells, Silver Bells (Medley)
TTITLE5=Donnie McClurkin feat. Richard Smallwood - Total Praise
TTITLE6=Fred Hammond - Christmas Everyday
TTITLE7=Mary Mary - Hark The Herald Angels Sing
TTITLE8=Kirk Franklin and The Family - Silent Night
TTITLE9=Whitney Houston with The Georgia Mass Choir - Joy To The World
EXTD=
EXTT0=
EXTT1=
EXTT2=
EXTT3=
EXTT4=
EXTT5=
EXTT6=
EXTT7=
EXTT8=
EXTT9=
PLAYORDER=
